<svg xmlns="http://www.w3.org/2000/svg">
    <symbol id="settings" viewBox="0 0 28 28">
        <path transform="translate(-802 -100)" d="M826.44 116.98h-1.32a9.45 9.45 0 0 1-.92 2.2l1.22 1.22a2 2 0 0 1 0 2.83l-.7.71c-.79.79-2.06.79-2.84 0l-1.24-1.23c-.68.39-1.42.7-2.2.9v1.29a2 2 0 0 1-2 2h-1a2 2 0 0 1-2.01-2v-1.29a9.48 9.48 0 0 1-2.2-.9l-1.23 1.23c-.79.79-2.06.79-2.84 0l-.71-.7a2 2 0 0 1 0-2.84l1.22-1.22c-.4-.69-.7-1.43-.92-2.2h-1.32a2 2 0 0 1-2.01-2v-1.01c0-1.1.9-2 2-2h1.32c.2-.78.5-1.51.89-2.19l-1.18-1.18a2 2 0 0 1 0-2.83l.7-.7a2.01 2.01 0 0 1 2.85 0l1.15 1.14c.7-.4 1.47-.73 2.28-.95v-1.34c0-1.1.9-2 2-2h1a2 2 0 0 1 2.02 2v1.34c.8.22 1.56.54 2.27.95l1.16-1.15a2.01 2.01 0 0 1 2.83 0l.71.71a2 2 0 0 1 0 2.83l-1.17 1.18c.38.68.68 1.41.89 2.19h1.3a2 2 0 0 1 2.01 2v1a2 2 0 0 1-2 2zm-8-2.54a2.5 2.5 0 1 0-5 0 2.5 2.5 0 0 0 5 0z"/>
    </symbol>
    <symbol id="bell" viewBox="0 0 26 29">
        <path transform="translate(-1091 -100)" d="M1114.83 122.2v1.82h-22.05v-1.82s-.48-1.01 2.08-3.43 2.22-8.67 2.22-12.9 5.96-4.32 5.96-4.32h1.53s5.95.09 5.95 4.32-.34 10.48 2.22 12.9 2.09 3.43 2.09 3.43zm-8.51 2.79c0 1.38-1.13 2.88-2.51 2.88-1.39 0-2.51-1.5-2.51-2.88 0 .03 5.02-.03 5.02 0z"/>
    </symbol>
    <symbol id="info" viewBox="0 0 27 28">
        <path transform="translate(-420 -817)" d="M422 831a12 12 0 1 1 24 0 12 12 0 0 1-24 0zm12 9.33a9.33 9.33 0 1 0 0-18.66 9.33 9.33 0 0 0 0 18.66zm-1.33-4.89v-4.5a1.33 1.33 0 0 1 2.66 0v4.5a1.33 1.33 0 0 1-2.66 0zm0-8.88a1.33 1.33 0 1 1 2.66 0 1.33 1.33 0 0 1-2.66 0z"/>
    </symbol>
    <symbol id="calendar" viewBox="0 0 21 24">
        <path fill-rule="evenodd" d="M19.000,24.000 L2.000,24.000 C0.895,24.000 -0.000,23.104 -0.000,22.000 L-0.000,5.000 C-0.000,3.895 0.895,3.000 2.000,3.000 L2.000,5.000 C2.000,5.552 2.448,6.000 3.000,6.000 L6.000,6.000 C6.552,6.000 7.000,5.552 7.000,5.000 L7.000,3.000 L14.000,3.000 L14.000,5.000 C14.000,5.552 14.448,6.000 15.000,6.000 L18.000,6.000 C18.552,6.000 19.000,5.552 19.000,5.000 L19.000,3.000 C20.104,3.000 21.000,3.895 21.000,5.000 L21.000,22.000 C21.000,23.104 20.104,24.000 19.000,24.000 ZM19.000,9.000 L2.000,9.000 L2.000,21.000 C2.000,21.552 2.448,22.000 3.000,22.000 L18.000,22.000 C18.552,22.000 19.000,21.552 19.000,21.000 L19.000,9.000 ZM17.000,21.000 L16.000,21.000 C15.448,21.000 15.000,20.552 15.000,20.000 L15.000,19.000 C15.000,18.447 15.448,18.000 16.000,18.000 L17.000,18.000 C17.552,18.000 18.000,18.447 18.000,19.000 L18.000,20.000 C18.000,20.552 17.552,21.000 17.000,21.000 ZM17.000,17.000 L16.000,17.000 C15.448,17.000 15.000,16.552 15.000,16.000 L15.000,15.000 C15.000,14.448 15.448,14.000 16.000,14.000 L17.000,14.000 C17.552,14.000 18.000,14.448 18.000,15.000 L18.000,16.000 C18.000,16.552 17.552,17.000 17.000,17.000 ZM17.000,13.000 L16.000,13.000 C15.448,13.000 15.000,12.552 15.000,12.000 L15.000,11.000 C15.000,10.448 15.448,10.000 16.000,10.000 L17.000,10.000 C17.552,10.000 18.000,10.448 18.000,11.000 L18.000,12.000 C18.000,12.552 17.552,13.000 17.000,13.000 ZM13.000,21.000 L12.000,21.000 C11.448,21.000 11.000,20.552 11.000,20.000 L11.000,19.000 C11.000,18.447 11.448,18.000 12.000,18.000 L13.000,18.000 C13.552,18.000 14.000,18.447 14.000,19.000 L14.000,20.000 C14.000,20.552 13.552,21.000 13.000,21.000 ZM13.000,17.000 L12.000,17.000 C11.448,17.000 11.000,16.552 11.000,16.000 L11.000,15.000 C11.000,14.448 11.448,14.000 12.000,14.000 L13.000,14.000 C13.552,14.000 14.000,14.448 14.000,15.000 L14.000,16.000 C14.000,16.552 13.552,17.000 13.000,17.000 ZM13.000,13.000 L12.000,13.000 C11.448,13.000 11.000,12.552 11.000,12.000 L11.000,11.000 C11.000,10.448 11.448,10.000 12.000,10.000 L13.000,10.000 C13.552,10.000 14.000,10.448 14.000,11.000 L14.000,12.000 C14.000,12.552 13.552,13.000 13.000,13.000 ZM9.000,21.000 L8.000,21.000 C7.448,21.000 7.000,20.552 7.000,20.000 L7.000,19.000 C7.000,18.447 7.448,18.000 8.000,18.000 L9.000,18.000 C9.552,18.000 10.000,18.447 10.000,19.000 L10.000,20.000 C10.000,20.552 9.552,21.000 9.000,21.000 ZM9.000,17.000 L8.000,17.000 C7.448,17.000 7.000,16.552 7.000,16.000 L7.000,15.000 C7.000,14.448 7.448,14.000 8.000,14.000 L9.000,14.000 C9.552,14.000 10.000,14.448 10.000,15.000 L10.000,16.000 C10.000,16.552 9.552,17.000 9.000,17.000 ZM9.000,13.000 L8.000,13.000 C7.448,13.000 7.000,12.552 7.000,12.000 L7.000,11.000 C7.000,10.448 7.448,10.000 8.000,10.000 L9.000,10.000 C9.552,10.000 10.000,10.448 10.000,11.000 L10.000,12.000 C10.000,12.552 9.552,13.000 9.000,13.000 ZM5.000,21.000 L4.000,21.000 C3.448,21.000 3.000,20.552 3.000,20.000 L3.000,19.000 C3.000,18.447 3.448,18.000 4.000,18.000 L5.000,18.000 C5.552,18.000 6.000,18.447 6.000,19.000 L6.000,20.000 C6.000,20.552 5.552,21.000 5.000,21.000 ZM5.000,17.000 L4.000,17.000 C3.448,17.000 3.000,16.552 3.000,16.000 L3.000,15.000 C3.000,14.448 3.448,14.000 4.000,14.000 L5.000,14.000 C5.552,14.000 6.000,14.448 6.000,15.000 L6.000,16.000 C6.000,16.552 5.552,17.000 5.000,17.000 ZM5.000,13.000 L4.000,13.000 C3.448,13.000 3.000,12.552 3.000,12.000 L3.000,11.000 C3.000,10.448 3.448,10.000 4.000,10.000 L5.000,10.000 C5.552,10.000 6.000,10.448 6.000,11.000 L6.000,12.000 C6.000,12.552 5.552,13.000 5.000,13.000 ZM17.000,5.000 L16.000,5.000 C15.448,5.000 15.000,4.552 15.000,4.000 L15.000,1.000 C15.000,0.448 15.448,-0.000 16.000,-0.000 L17.000,-0.000 C17.552,-0.000 18.000,0.448 18.000,1.000 L18.000,4.000 C18.000,4.552 17.552,5.000 17.000,5.000 ZM5.000,5.000 L4.000,5.000 C3.448,5.000 3.000,4.552 3.000,4.000 L3.000,1.000 C3.000,0.448 3.448,-0.000 4.000,-0.000 L5.000,-0.000 C5.552,-0.000 6.000,0.448 6.000,1.000 L6.000,4.000 C6.000,4.552 5.552,5.000 5.000,5.000 Z"/>
    </symbol>
    <symbol id="folder" viewBox="0 0 21 19">
        <path fill-rule="evenodd" stroke-width="1px" stroke="currentColor" fill="transparent" d="M16.167,15.500 L4.833,15.500 C4.097,15.500 3.500,14.934 3.500,14.237 L3.500,6.658 C3.500,5.960 4.097,5.395 4.833,5.395 L4.833,4.132 C4.833,3.783 5.132,3.500 5.500,3.500 L9.500,3.500 C9.868,3.500 10.167,3.783 10.167,4.132 L10.611,5.395 L16.167,5.395 C16.903,5.395 17.500,5.960 17.500,6.658 L17.500,14.237 C17.500,14.934 16.903,15.500 16.167,15.500 ZM4.833,13.605 C4.833,13.954 5.132,14.237 5.500,14.237 L15.500,14.237 C15.868,14.237 16.167,13.954 16.167,13.605 L4.833,13.605 Z"/>
    </symbol>
    <symbol id="folder-locked" viewBox="0 0 21 19">
        <path fill-rule="evenodd" stroke-width="1px" stroke="currentColor" fill-opacity="0" fill="transparent" d="M15.500,9.500 L15.500,13.500 L4.833,13.605 C4.833,13.954 5.132,14.237 5.500,14.237 L15.500,14.237 L15.500,13.500 L15.500,15.500 L4.833,15.500 C4.097,15.500 3.500,14.934 3.500,14.237 L3.500,6.658 C3.500,5.960 4.097,5.395 4.833,5.395 L4.833,4.132 C4.833,3.783 5.132,3.500 5.500,3.500 L9.500,3.500 C9.868,3.500 10.167,3.783 10.167,4.132 L10.611,5.395 L16.167,5.395 C16.903,5.395 17.500,5.960 17.500,6.658 L17.500,9.434 L15.500,9.500 Z"/>
        <path fill-rule="evenodd" fill="currentColor" d="M13.500,17.500 L13.500,12.534 L14.413,12.534 L14.413,10.983 C14.413,9.612 15.503,8.500 16.848,8.500 L17.152,8.500 C18.497,8.500 19.587,9.612 19.587,10.983 L19.587,12.534 L20.500,12.534 L20.500,17.500 L13.500,17.500 ZM18.674,11.138 C18.674,10.195 17.924,9.431 17.000,9.431 C16.075,9.431 15.326,10.195 15.326,11.138 L15.326,12.534 L18.674,12.534 L18.674,11.138 Z"/>
    </symbol>
    <symbol id="eye-closed" viewBox="0 0 26 13">
        <path transform="translate(-1083 -549)" d="M1084 553l2-2s4.97 7 10 7c5.19 0 10-7 10-7l2 2s-5.23 7.99-12.11 7.99c-7.36 0-11.89-8-11.89-8z"/>
    </symbol>
    <symbol id="eye-opened" viewBox="0 0 26 18">
        <path transform="translate(-1083 -544)" d="M1095.89 545c6.92 0 12.1 8 12.1 8s-5.22 7.99-12.1 7.99c-7.36 0-11.89-8-11.89-8s4.57-7.98 11.89-7.98zm-4.9 8a5 5 0 1 0 10-.02 5 5 0 0 0-10 .02zm5.04-2.5a2.49 2.49 0 1 1 0 4.98 2.49 2.49 0 0 1 0-4.98z"/>
    </symbol>
    <symbol id="help" viewBox="0 0 26 26">
        <path transform="translate(-1632 -16)" d="M1645.5 18a11.5 11.5 0 1 1 0 23 11.5 11.5 0 0 1 0-23zm-8.94 11.5a8.94 8.94 0 1 0 17.88 0 8.94 8.94 0 0 0-17.88 0zm8.94 2.98a1.28 1.28 0 1 1 0 2.56 1.28 1.28 0 0 1 0-2.56zm-.84-1.85c0-.66.1-1.15.3-1.45.55-.85 1.9-1.59 1.86-2.25-.07-1.46-2.2-1.35-2.2-.12-.06 1.2-2 1.06-2.05 0 0 0-.35-1.16.9-2.13 1.16-.9 2.87-1 4.16.13.94.83 1.48 3.07-.17 4.23-.58.44-.71.8-.71 1.59.03 1.23-1.98 1.4-2.1 0z"/>
    </symbol>
    <symbol id="lock" viewBox="0 0 15 19">
        <path transform="translate(-1290 -123)" d="M1292 141v-8.83h1.56v-2.76a4.3 4.3 0 0 1 4.18-4.41h.52a4.3 4.3 0 0 1 4.17 4.41v2.76h1.57V141zm5.6-4.53l-.38 2.87h1.56l-.39-2.87c.38-.17.65-.56.65-1.02 0-.61-.46-1.1-1.04-1.1-.58 0-1.04.49-1.04 1.1 0 .46.26.85.65 1.02zm3.27-6.78a2.96 2.96 0 0 0-2.87-3.03 2.96 2.96 0 0 0-2.87 3.03v2.48h5.74z"/>
    </symbol>
    <symbol id="logout" viewBox="0 0 18 16">
        <path transform="translate(-1455 -125)" d="M1469 127h3v13h-3zm-12.99 7.96v-2.95h7.03v-3.4l4.79 4.84-4.83 4.87.04-3.36z"/>
    </symbol>
    <symbol id="fb" viewBox="0 0 49.652 49.652">
        <path d="M24.826,0C11.137,0,0,11.137,0,24.826c0,13.688,11.137,24.826,24.826,24.826c13.688,0,24.826-11.138,24.826-24.826
            C49.652,11.137,38.516,0,24.826,0z M31,25.7h-4.039c0,6.453,0,14.396,0,14.396h-5.985c0,0,0-7.866,0-14.396h-2.845v-5.088h2.845
            v-3.291c0-2.357,1.12-6.04,6.04-6.04l4.435,0.017v4.939c0,0-2.695,0-3.219,0c-0.524,0-1.269,0.262-1.269,1.386v2.99h4.56L31,25.7z
            "/>
    </symbol>
    <symbol id="bubbles" viewBox="0 0 28 27">
        <path transform="translate(-56 -663)" d="M67.13 665a9.17 9.17 0 0 1 9.14 9.2 9.17 9.17 0 0 1-10.8 9.05l-5.54 2.86 1.81-4.47A9.22 9.22 0 0 1 58 674.2c0-5.08 4.1-9.2 9.14-9.2zM83 677.07a9.22 9.22 0 0 1-3.75 7.44l1.8 4.47-5.52-2.86c-.54.1-1.1.16-1.67.16-5.05 0-5.69-1.77-5.69-1.77 5.74 0 12.78-8.59 6.8-16.65 4.18.04 8.03 4.12 8.03 9.2z"/>
    </symbol>
    <symbol id="curator" viewBox="0 0 23 27">
        <path transform="translate(-59 -734)" d="M71 736c2.76 0 5 2.15 5 4.8a4.9 4.9 0 0 1-5 4.8 4.9 4.9 0 0 1-5-4.8 4.9 4.9 0 0 1 5-4.8zm-2.78 12.27L71 745.6l2.78 2.67-2.78 11.2zm-3.33-1.07L71 760h-.45c-5.32-.1-9.55-1.9-9.55-3.47v-5.06s.7-3.87 1.67-4.27c.97-.4 2.22 0 2.22 0zm14.44 0c.97.4 1.67 4.27 1.67 4.27v5.06c0 1.58-4.23 3.37-9.55 3.47H71l6.11-12.8s1.25-.4 2.22 0z"/>
    </symbol>
    <symbol id="refresh" viewBox="0 0 19 19">
        <path transform="translate(-1361 -219)" d="M1376.68 229.46l-2.31-2.46h1.35a5.52 5.52 0 0 0-5.16-3.8c-3.03 0-5.5 2.6-5.5 5.84 0 3.22 2.47 5.84 5.5 5.84a5.5 5.5 0 0 0 5.03-3.45l.02-.06 1.47 1.56-.02.06-.01.01a7.46 7.46 0 0 1-6.52 4c-4.16 0-7.53-3.58-7.53-8s3.37-8 7.53-8c3.48 0 6.4 2.5 7.27 5.9 0 .03 0 .07.02.1h1.18z"/>
    </symbol>
    <symbol id="doc" style="shape-rendering:geometricPrecision; text-rendering:geometricPrecision; image-rendering:optimizeQuality; fill-rule:evenodd; clip-rule:evenodd" viewBox="0 0 564 564">
        <path fill="currentColor" d="M0 36l36 0 0 432 -36 0 0 -432zm36 -36l324 0 0 36 -324 0 0 -36zm360 468l-36 0 0 -432 36 0 0 432zm-36 36l-324 0 0 -36 324 0 0 36zm-288 -360l36 0 0 36 -36 0 0 -36zm72 0l180 0 0 36 -180 0 0 -36zm-72 108l36 0 0 36 -36 0 0 -36zm72 0l180 0 0 36 -180 0 0 -36zm-72 108l36 0 0 36 -36 0 0 -36zm72 0l180 0 0 36 -180 0 0 -36z"/>
    </symbol>
    <symbol id="doc-done" style="shape-rendering:geometricPrecision; text-rendering:geometricPrecision; image-rendering:optimizeQuality; fill-rule:evenodd; clip-rule:evenodd" viewBox="0 0 564 564">
        <path fill="currentColor" d="M0 36l36 0 0 432 -36 0 0 -432zm36 -36l324 0 0 36 -324 0 0 -36zm360 468l-36 0 0 -432 36 0 0 432zm-36 36l-324 0 0 -36 324 0 0 36zm-288 -360l36 0 0 36 -36 0 0 -36zm72 0l180 0 0 36 -180 0 0 -36zm-72 108l36 0 0 36 -36 0 0 -36zm72 0l180 0 0 36 -180 0 0 -36zm-72 108l36 0 0 36 -36 0 0 -36zm72 0l180 0 0 36 -180 0 0 -36z"/>
        <ellipse fill="#4FC881" cx="330" cy="409" rx="154" ry="156"/>
        <g fill="#fefefe">
            <rect x="242" y="423" width="35.2563" height="35.29"/>
            <rect x="278" y="459" width="35.2563" height="35.29"/>
            <rect x="313" y="423" width="35.2563" height="35.29"/>
            <rect x="348" y="388" width="35.2563" height="35.29"/>
            <rect x="384" y="353" width="35.2563" height="35.29"/>
        </g>
    </symbol>
    <symbol id="doc-warning" style="shape-rendering:geometricPrecision; text-rendering:geometricPrecision; image-rendering:optimizeQuality; fill-rule:evenodd; clip-rule:evenodd" viewBox="0 0 564 564">
        <path fill="currentColor" d="M0 36l36 0 0 432 -36 0 0 -432zm36 -36l324 0 0 36 -324 0 0 -36zm360 468l-36 0 0 -432 36 0 0 432zm-36 36l-324 0 0 -36 324 0 0 36zm-288 -360l36 0 0 36 -36 0 0 -36zm72 0l180 0 0 36 -180 0 0 -36zm-72 108l36 0 0 36 -36 0 0 -36zm72 0l180 0 0 36 -180 0 0 -36zm-72 108l36 0 0 36 -36 0 0 -36zm72 0l180 0 0 36 -180 0 0 -36z"/>
        <ellipse fill="#fdd95f" cx="330" cy="409" rx="154" ry="156"/>
    </symbol>
    <symbol id="doc-danger" style="shape-rendering:geometricPrecision; text-rendering:geometricPrecision; image-rendering:optimizeQuality; fill-rule:evenodd; clip-rule:evenodd" viewBox="0 0 564 564">
        <path fill="currentColor" d="M0 36l36 0 0 432 -36 0 0 -432zm36 -36l324 0 0 36 -324 0 0 -36zm360 468l-36 0 0 -432 36 0 0 432zm-36 36l-324 0 0 -36 324 0 0 36zm-288 -360l36 0 0 36 -36 0 0 -36zm72 0l180 0 0 36 -180 0 0 -36zm-72 108l36 0 0 36 -36 0 0 -36zm72 0l180 0 0 36 -180 0 0 -36zm-72 108l36 0 0 36 -36 0 0 -36zm72 0l180 0 0 36 -180 0 0 -36z"/>
        <ellipse fill="#fd5e5e" cx="330" cy="409" rx="154" ry="156"/>
    </symbol>
    <symbol id="send" viewBox="0 0 21 16">
        <path transform="translate(-1474 -1048)" d="M1474 1058.6l7.25 2.3 8.92-7.91-6.92 8.52 7.75 2.5 4-16.01z"/>
    </symbol>
    <symbol id="user" viewBox="0 0 18 25" fill="#fff" fill-opacity="0" stroke="#bebebe" stroke-linecap="round" stroke-linejoin="round" stroke-miterlimit="50" stroke-width="3" clip-path="url(&quot;#jnpob&quot;)">
       <path transform="translate(-400 -195)" d="M408.99 197c2.1 0 4.99 1.75 4.99 4.58 0 2.11-1.6 5.12-3.3 6.52.23 1.14.88 1.94 2.3 2.09 3.87.41 4.99 2.96 4.99 2.96.65 4.86-8.99 4.85-8.99 4.85s-8.76.12-8.98-4.85c0 0 1.12-2.55 5-2.96 1.41-.15 2.06-.95 2.28-2.1-1.69-1.4-3.29-4.4-3.29-6.5 0-2.65 2.66-4.59 5-4.59z"/>
    </symbol>
    <symbol id="search" viewBox="0 0 15 15">
        <path transform="translate(-1497 -197)" d="M1512.63 212.22l-.44.44c-.44.43-1.16.43-1.6 0l-2.75-2.76a6.43 6.43 0 1 1 2.03-2.03l2.76 2.75c.44.44.44 1.16 0 1.6zm-3.55-7.78a4.65 4.65 0 1 0-9.3 0 4.65 4.65 0 0 0 9.3 0z"/>
    </symbol>
    <symbol id="attach-doc" viewBox="0 0 24 24">
        <path fill-rule="evenodd"  fill="rgb(47, 80, 136)" d="M3.000,-0.000 L21.000,-0.000 C22.657,-0.000 24.000,1.343 24.000,3.000 L24.000,21.000 C24.000,22.657 22.657,24.000 21.000,24.000 L3.000,24.000 C1.343,24.000 -0.000,22.657 -0.000,21.000 L-0.000,3.000 C-0.000,1.343 1.343,-0.000 3.000,-0.000 Z"/>
        <text kerning="auto" font-family="Myriad Pro" fill="rgb(0, 0, 0)" font-size="14px" x="6px" y="18.032px"><tspan font-size="14px" font-family="Roboto" font-weight="bold" fill="#FFFFFF">W</tspan></text>
    </symbol>
    <symbol id="attach-xls" viewBox="0 0 24 24">
        <path fill-rule="evenodd"  fill="rgb(42, 102, 75)" d="M3.000,-0.000 L21.000,-0.000 C22.657,-0.000 24.000,1.343 24.000,3.000 L24.000,21.000 C24.000,22.657 22.657,24.000 21.000,24.000 L3.000,24.000 C1.343,24.000 -0.000,22.657 -0.000,21.000 L-0.000,3.000 C-0.000,1.343 1.343,-0.000 3.000,-0.000 Z"/>
        <text kerning="auto" font-family="Myriad Pro" fill="rgb(0, 0, 0)" font-size="14px" x="8px" y="18.062px"><tspan font-size="14px" font-family="Roboto" font-weight="bold" fill="#FFFFFF">X</tspan></text>
    </symbol>
    <symbol id="attach-pdf" viewBox="0 0 24 24">
        <path fill-rule="evenodd"  fill="rgb(183, 42, 42)" d="M3.000,-0.000 L21.000,-0.000 C22.657,-0.000 24.000,1.343 24.000,3.000 L24.000,21.000 C24.000,22.657 22.657,24.000 21.000,24.000 L3.000,24.000 C1.343,24.000 -0.000,22.657 -0.000,21.000 L-0.000,3.000 C-0.000,1.343 1.343,-0.000 3.000,-0.000 Z"/>
        <text kerning="auto" font-family="Myriad Pro" fill="rgb(0, 0, 0)" font-size="10px" x="2px" y="16.062px"><tspan font-size="10px" font-family="Roboto" font-weight="bold" fill="#FFFFFF">&#46;pdf</tspan></text>
    </symbol>
    <symbol id="attach-image" viewBox="0 0 24 24">
        <path fill-rule="evenodd"  fill="rgb(6, 167, 224)" d="M3.000,-0.000 L21.000,-0.000 C22.657,-0.000 24.000,1.343 24.000,3.000 L24.000,21.000 C24.000,22.657 22.657,24.000 21.000,24.000 L3.000,24.000 C1.343,24.000 -0.000,22.657 -0.000,21.000 L-0.000,3.000 C-0.000,1.343 1.343,-0.000 3.000,-0.000 Z"/>
        <path fill-rule="evenodd"  fill="rgb(255, 255, 255)" d="M1.000,21.000 L1.000,4.000 L23.000,4.000 L23.000,21.000 L1.000,21.000 ZM22.000,6.000 L9.699,6.000 C9.835,6.258 9.919,6.547 9.919,6.858 C9.919,7.898 8.000,10.957 8.000,10.957 C8.000,10.957 6.081,7.898 6.081,6.858 C6.081,6.547 6.165,6.258 6.301,6.000 L2.000,6.000 L2.000,8.943 C2.031,8.701 2.110,8.461 2.242,8.237 C2.772,7.336 3.945,7.028 4.863,7.548 C5.781,8.068 7.520,11.228 7.520,11.228 C7.520,11.228 3.862,11.330 2.944,10.810 C2.261,10.423 1.915,9.686 2.000,8.963 L2.000,14.037 C1.915,13.314 2.261,12.577 2.944,12.190 C3.862,11.670 7.520,11.772 7.520,11.772 C7.520,11.772 5.781,14.932 4.863,15.452 C3.945,15.972 2.772,15.663 2.242,14.763 C2.110,14.538 2.031,14.299 2.000,14.057 L2.000,19.000 L14.066,19.000 C13.940,18.570 14.120,18.103 14.566,17.870 C15.099,17.591 17.222,17.646 17.222,17.646 C17.222,17.646 16.762,18.413 16.299,19.000 L16.765,19.000 C17.088,18.399 17.500,17.791 17.500,17.791 C17.500,17.791 17.912,18.399 18.235,19.000 L18.701,19.000 C18.238,18.413 17.778,17.646 17.778,17.646 C17.778,17.646 19.901,17.591 20.434,17.870 C20.880,18.103 21.060,18.570 20.934,19.000 L22.000,19.000 L22.000,6.000 ZM17.778,17.354 C17.778,17.354 18.787,15.661 19.320,15.382 C19.853,15.103 20.534,15.269 20.842,15.752 C21.149,16.234 20.967,16.852 20.434,17.130 C19.901,17.409 17.778,17.354 17.778,17.354 ZM16.386,15.012 C16.386,14.455 16.885,14.003 17.500,14.003 C18.115,14.003 18.614,14.455 18.614,15.012 C18.614,15.570 17.500,17.209 17.500,17.209 C17.500,17.209 16.386,15.570 16.386,15.012 ZM14.566,17.130 C14.033,16.852 13.851,16.234 14.158,15.752 C14.466,15.269 15.147,15.103 15.680,15.382 C16.212,15.661 17.222,17.354 17.222,17.354 C17.222,17.354 15.099,17.409 14.566,17.130 ZM11.137,15.452 C10.219,14.932 8.479,11.772 8.479,11.772 C8.479,11.772 12.138,11.670 13.056,12.190 C13.974,12.710 14.288,13.862 13.758,14.763 C13.228,15.663 12.055,15.972 11.137,15.452 ZM8.479,11.228 C8.479,11.228 10.219,8.068 11.136,7.548 C12.055,7.028 13.228,7.336 13.758,8.237 C14.288,9.138 13.974,10.290 13.056,10.810 C12.138,11.330 8.479,11.228 8.479,11.228 ZM8.000,18.025 C6.940,18.025 6.081,17.182 6.081,16.142 C6.081,15.102 8.000,12.043 8.000,12.043 C8.000,12.043 9.919,15.102 9.919,16.142 C9.919,17.182 9.060,18.025 8.000,18.025 Z"/>
    </symbol>
    <symbol id="attach-video" viewBox="0 0 24 24">
        <path fill-rule="evenodd"  fill="rgb(138, 85, 144)" d="M3.000,-0.000 L21.000,-0.000 C22.657,-0.000 24.000,1.343 24.000,3.000 L24.000,21.000 C24.000,22.657 22.657,24.000 21.000,24.000 L3.000,24.000 C1.343,24.000 -0.000,22.657 -0.000,21.000 L-0.000,3.000 C-0.000,1.343 1.343,-0.000 3.000,-0.000 Z"/>
        <path fill-rule="evenodd"  fill="rgb(249, 249, 249)" d="M8.998,8.004 L16.985,12.500 L8.998,16.997 L8.998,8.004 Z"/>
    </symbol>
    <symbol id="attach-other" viewBox="0 0 24 24">
        <path fill-rule="evenodd"  fill="rgb(187, 187, 189)" d="M3.000,-0.000 L21.000,-0.000 C22.657,-0.000 24.000,1.343 24.000,3.000 L24.000,21.000 C24.000,22.657 22.657,24.000 21.000,24.000 L3.000,24.000 C1.343,24.000 -0.000,22.657 -0.000,21.000 L-0.000,3.000 C-0.000,1.343 1.343,-0.000 3.000,-0.000 Z"/>
        <path fill-rule="evenodd"  fill="rgb(252, 252, 255)" d="M17.132,7.149 C15.999,6.016 14.155,6.016 13.022,7.149 L10.426,9.745 L7.975,12.196 L6.551,13.621 C5.696,14.475 5.696,15.866 6.551,16.721 C7.406,17.576 8.796,17.576 9.651,16.721 L10.354,16.018 L13.527,12.845 L14.608,11.764 C15.165,11.207 15.165,10.302 14.608,9.745 C14.052,9.188 13.146,9.188 12.589,9.745 L7.975,14.359 C7.836,14.499 7.836,14.725 7.975,14.864 C8.114,15.004 8.340,15.004 8.480,14.864 L13.094,10.250 C13.372,9.971 13.825,9.971 14.104,10.250 C14.382,10.528 14.382,10.981 14.104,11.259 L13.022,12.341 L9.849,15.513 L9.147,16.216 C8.570,16.793 7.632,16.793 7.056,16.216 C6.479,15.640 6.479,14.702 7.056,14.125 L8.480,12.701 L10.931,10.250 L13.527,7.654 C14.382,6.799 15.772,6.799 16.627,7.654 C17.482,8.509 17.482,9.900 16.627,10.754 L10.282,17.099 C10.143,17.239 10.143,17.465 10.282,17.604 C10.422,17.744 10.647,17.744 10.787,17.604 L17.132,11.259 C18.265,10.126 18.265,8.282 17.132,7.149 Z"/>
    </symbol>
</svg>