<svg
 xmlns="http://www.w3.org/2000/svg"
 xmlns:xlink="http://www.w3.org/1999/xlink"
 width="24px" height="24px">
<path fill-rule="evenodd"  fill="rgb(216, 223, 235)"
 d="M12.000,-0.000 C18.627,-0.000 24.000,5.373 24.000,12.000 C24.000,18.627 18.627,24.000 12.000,24.000 C5.373,24.000 -0.000,18.627 -0.000,12.000 C-0.000,5.373 5.373,-0.000 12.000,-0.000 Z"/>
<path fill-rule="evenodd"  stroke-width="1px" stroke="rgb(59, 59, 68)" fill-opacity="0" fill="rgb(59, 59, 68)"
 d="M15.269,12.653 C14.478,12.653 13.818,12.134 13.612,11.429 L10.077,11.429 L10.077,15.714 C10.269,17.566 10.380,17.866 12.154,17.857 L13.538,17.857 L13.538,18.316 L13.538,18.571 L10.769,18.571 C10.004,18.571 9.385,17.932 9.385,17.143 L9.385,8.571 L9.731,8.571 L10.077,8.571 L10.077,10.714 L13.565,10.714 C13.692,9.906 14.403,9.286 15.269,9.286 C16.225,9.286 17.000,10.039 17.000,10.969 C17.000,11.899 16.225,12.653 15.269,12.653 ZM15.269,16.633 C16.225,16.633 17.000,17.386 17.000,18.316 C17.000,19.246 16.225,20.000 15.269,20.000 C14.313,20.000 13.538,19.246 13.538,18.316 C13.538,17.386 14.313,16.633 15.269,16.633 ZM8.000,6.786 C8.000,5.799 8.775,5.000 9.731,5.000 C10.687,5.000 11.462,5.799 11.462,6.786 C11.462,7.772 10.687,8.571 9.731,8.571 C8.775,8.571 8.000,7.772 8.000,6.786 Z"/>
</svg>